<?xml version="1.0" encoding="utf-8"?>
<!-- Generator: Adobe Illustrator 24.1.1, SVG Export Plug-In . SVG Version: 6.00 Build 0)  -->
<svg version="1.1" id="Layer_1" xmlns="http://www.w3.org/2000/svg" xmlns:xlink="http://www.w3.org/1999/xlink" x="0px" y="0px"
	 viewBox="0 0 512 512" style="enable-background:new 0 0 512 512;" xml:space="preserve">
<style type="text/css">
	.st0{fill:#cccccc;}
</style>
<g id="XMLID_1_">
	<path id="XMLID_5_" class="st0" d="M88.7,58.9l45.5,14.9l3.1,2.4c7.1-3.9,14.9-8.6,22.8-12.6l-1.6-3.9l9.4-47.1l41.6-11l32.2,36.9
		l0.8,3.9c8.6-2.4,18.1-2.4,26.7,0l0.8-3.9l32.2-36.9l41.6,11l9.4,47.1l-1.6,3.9c7.9,3.9,15.7,8.6,22.8,12.6l3.1-2.4l45.5-14.9
		l30.6,29.8L439,134.3l-3.1,3.9c4.7,6.3,9.4,14.9,13.3,21.2h3.9l47.1,8.6l11.8,40.8l-36.9,32.2h-3.9c0.8,11,0.8,19.6,0,28.3h3.9
		l36.9,32.2l-12.6,44l-47.1,8.6l-3.9-2.4c-3.9,8.6-8.6,14.9-13.3,23.6l3.1,2.4l14.9,45.5l-30.6,32.2l-45.5-17.3l-3.1-2.4
		c-7.1,3.9-14.9,8.6-22.8,12.6l1.6,3.9l-9.4,47.1l-41.6,11l-32.2-36.9l-0.8-2.4h-26.7l-0.8,2.4l-32.2,36.9l-41.6-11l-8.6-47.1
		l1.6-3.9c-7.9-3.9-15.7-8.6-22.8-12.6l-3.1,2.4l-45.5,17.3l-30.6-32.2L73,377.7l3.1-2.4c-4.7-8.6-9.4-14.9-13.3-23.6l-3.9,2.4
		l-47.1-8.6L0,302.3l36.9-32.2h3.9c-0.8-8.6-0.8-17.3,0-28.3h-3.9L0,209.7l11.8-40.8l47.1-8.6h3.9c3.9-6.3,8.6-14.9,13.3-21.2
		l-3.1-3.9L58.1,89.5L88.7,58.9z M149.2,149.2c-58.9,58.1-58.9,154.7,0,212.8c58.9,58.1,153.9,58.1,212.8,0s58.9-154.7,0-212.8
		C303.9,91.1,208.1,91.1,149.2,149.2z"/>
</g>
</svg>
