<?xml version="1.0" standalone="no"?>
<!DOCTYPE svg PUBLIC "-//W3C//DTD SVG 20010904//EN"
 "http://www.w3.org/TR/2001/REC-SVG-20010904/DTD/svg10.dtd">
<svg version="1.0" xmlns="http://www.w3.org/2000/svg"
 width="340.000000pt" height="322.000000pt" viewBox="0 0 340.000000 322.000000"
 preserveAspectRatio="xMidYMid meet">

<g transform="translate(0.000000,322.000000) scale(0.100000,-0.100000)"
fill="#aa0404" stroke="none">
<path d="M2750 3201 c-42 -6 -45 -8 -51 -41 -9 -56 -46 -117 -87 -145 -20 -14
-73 -36 -117 -49 -151 -44 -310 -88 -420 -116 -118 -30 -178 -52 -277 -100
-48 -24 -57 -26 -38 -10 25 21 24 21 -20 -1 -25 -12 -67 -39 -94 -60 -45 -36
-183 -179 -202 -211 -5 -7 -21 -21 -36 -30 l-26 -17 3 35 c4 42 5 44 -74 -88
-51 -85 -68 -107 -57 -70 4 10 0 27 -8 37 -14 19 -15 18 -33 -14 -22 -41 -74
-104 -80 -97 -3 2 22 58 54 123 33 65 69 140 81 166 12 27 44 71 70 99 l47 51
-65 -43 c-83 -55 -134 -102 -174 -165 -161 -246 -181 -291 -192 -435 -5 -68
-13 -96 -38 -142 -33 -62 -41 -66 -86 -43 -39 20 -44 46 -36 168 4 56 5 99 2
96 -13 -13 -76 -285 -76 -329 0 -42 4 -52 31 -74 28 -24 30 -29 21 -55 -9 -25
-7 -30 15 -40 l24 -11 -30 -37 c-30 -36 -30 -38 -11 -45 29 -11 24 -19 -7 -13
-26 6 -27 5 -10 -8 17 -14 16 -17 -20 -43 -21 -15 -55 -44 -76 -63 -32 -31
-36 -39 -31 -67 4 -24 -1 -43 -20 -77 -32 -55 -61 -83 -71 -67 -4 6 -24 -12
-47 -45 -23 -30 -44 -55 -48 -55 -4 0 -17 34 -30 76 -23 72 -40 102 -40 70 0
-9 -4 -16 -9 -16 -5 0 -19 -56 -32 -124 -26 -147 -41 -166 -84 -111 -14 19
-33 52 -42 73 l-17 37 -6 -38 c-4 -20 -9 -39 -12 -42 -3 -3 -24 47 -48 110
-23 63 -46 118 -51 120 -4 3 -11 27 -15 53 l-8 47 -7 -45 c-11 -69 -10 -315 1
-346 6 -15 12 -52 14 -84 1 -31 6 -62 10 -69 4 -6 1 -23 -8 -36 -14 -21 -14
-28 0 -67 17 -49 52 -105 89 -142 14 -14 25 -31 25 -39 0 -15 350 -107 408
-107 44 0 35 11 -40 48 -35 17 -69 40 -76 52 -14 24 -7 25 48 11 47 -13 149
-20 155 -11 2 4 -23 20 -56 36 -34 15 -65 36 -70 46 -9 17 -3 18 69 18 43 0
82 3 85 7 4 3 -7 15 -25 26 -30 18 -31 20 -12 30 10 7 46 12 79 12 59 0 60 1
58 26 -1 19 5 30 22 37 13 6 25 21 27 34 3 22 6 23 97 21 81 -3 92 -1 87 13
-21 55 -19 62 21 79 35 16 42 16 102 0 35 -9 66 -13 70 -10 3 4 -9 33 -27 65
l-32 59 37 7 c50 9 63 20 63 54 0 31 11 36 157 75 81 23 97 15 40 -18 -44 -26
-46 -29 -35 -55 24 -61 25 -92 7 -208 -10 -66 -26 -144 -35 -174 -8 -30 -19
-71 -23 -90 -18 -81 -71 -173 -133 -232 -142 -134 -484 -249 -743 -251 -71 0
-210 28 -330 68 -16 5 -17 4 -5 -3 34 -22 230 -73 303 -79 42 -3 138 0 212 7
75 7 137 11 140 9 8 -9 -132 -48 -225 -62 l-95 -15 100 5 c55 3 132 11 171 19
154 31 439 155 555 243 65 49 178 164 248 251 19 25 52 64 73 87 38 43 75 108
114 203 l22 55 13 -45 c15 -53 17 -117 5 -143 -8 -16 -5 -18 20 -15 27 3 29 0
38 -41 9 -44 9 -44 -35 -82 -36 -32 -41 -40 -29 -49 14 -9 24 -9 73 7 12 4 17
0 17 -14 0 -34 -28 -77 -75 -118 -62 -55 -60 -67 13 -49 31 7 67 16 79 20 26
7 40 -25 24 -55 -13 -24 -97 -72 -176 -101 -103 -38 -92 -43 84 -35 147 6 172
10 255 38 88 31 91 33 96 67 5 32 9 35 65 53 36 11 95 19 145 20 76 2 89 -1
117 -22 18 -13 40 -40 49 -60 9 -20 18 -37 19 -39 5 -5 55 21 55 29 0 21 -82
68 -245 139 l-30 13 29 6 c29 6 28 7 -45 57 -41 28 -84 55 -97 58 -60 19 -70
140 -21 263 46 114 175 363 209 403 l30 34 83 -80 c45 -45 99 -91 119 -103 33
-20 40 -21 65 -8 15 8 64 27 108 42 73 26 117 55 213 140 14 13 -153 -4 -238
-24 -25 -6 -54 -11 -65 -11 -43 0 29 34 99 47 92 17 175 58 259 126 64 52 70
54 115 50 43 -4 45 -3 28 11 -10 8 -32 28 -50 43 -63 57 -103 82 -222 137
l-121 56 -116 -30 c-107 -27 -123 -29 -189 -20 -102 15 -99 24 5 17 87 -5 89
-4 83 17 -21 71 -21 70 35 93 28 13 56 20 60 17 17 -10 165 -22 198 -16 34 7
34 7 -40 37 -41 16 -94 41 -119 55 l-45 25 71 5 71 5 -88 45 c-103 51 -115 74
-46 86 32 5 37 8 23 14 -26 9 -10 17 50 25 68 9 166 -17 276 -72 48 -25 104
-61 125 -79 l38 -34 -52 3 c-29 2 -53 2 -53 0 0 -1 19 -15 43 -29 23 -15 75
-54 115 -86 l72 -59 0 59 c0 69 -25 225 -42 256 -22 41 -90 114 -117 126 -47
19 -151 25 -306 18 -173 -8 -288 -26 -427 -64 -14 -4 -18 1 -18 23 0 80 306
271 573 358 62 20 135 47 162 60 28 12 69 29 93 36 75 22 24 31 -122 20 -126
-10 -139 -13 -218 -50 -45 -22 -114 -60 -153 -85 -38 -25 -101 -55 -139 -67
-38 -11 -92 -36 -120 -54 -90 -60 -140 -97 -167 -122 -24 -22 -32 -24 -73 -18
-55 9 -53 14 29 82 101 83 183 134 309 190 186 84 255 123 271 153 15 29 69
60 105 60 19 0 20 -2 10 -15 -16 -19 0 -19 37 0 85 44 227 106 260 114 34 8
31 9 -35 10 -59 1 -94 -6 -178 -34 -58 -19 -134 -38 -170 -41 -42 -5 -64 -11
-64 -20 0 -21 -68 -37 -133 -31 -33 3 -71 1 -85 -4 -14 -6 -86 -53 -159 -106
-74 -53 -136 -93 -139 -91 -6 6 145 127 221 178 28 18 64 45 80 58 29 24 29
25 5 17 -123 -37 -265 -110 -327 -168 -21 -19 -23 -19 -23 -3 0 20 51 72 81
81 10 4 19 13 19 20 0 8 18 29 40 46 75 61 32 41 -122 -56 -162 -102 -161
-101 -222 -131 -25 -12 -57 -42 -85 -81 -48 -64 -68 -73 -82 -36 -6 17 -2 30
16 52 14 16 25 34 25 39 0 6 12 25 28 43 l27 33 -38 -23 c-21 -13 -41 -21 -44
-18 -12 13 174 185 197 181 8 -1 140 85 140 92 0 3 -24 -8 -54 -24 -29 -17
-95 -52 -147 -79 -52 -27 -120 -66 -152 -87 -82 -55 -200 -168 -227 -218 -22
-41 -117 -128 -140 -128 -31 0 108 217 199 310 30 30 55 63 56 72 4 43 139
133 291 194 48 20 122 53 163 73 42 21 119 51 171 66 176 51 299 130 337 216
26 57 26 60 16 57 -5 0 -28 -4 -53 -7z m-542 -768 c-21 -20 -40 -34 -44 -31
-7 8 55 68 71 68 5 0 -7 -17 -27 -37z m-58 -27 c0 -3 -4 -8 -10 -11 -5 -3 -10
-1 -10 4 0 6 5 11 10 11 6 0 10 -2 10 -4z m-330 -78 c-12 -53 -21 -71 -48
-100 -27 -29 -62 -37 -62 -15 0 11 55 94 90 135 19 22 28 13 20 -20z m-361
-10 c-6 -13 -26 -48 -44 -78 -38 -63 -73 -223 -55 -246 8 -9 -3 -28 -40 -70
-28 -33 -56 -61 -62 -63 -19 -6 1 110 26 156 22 40 66 142 66 152 0 5 3 11 8
13 4 2 29 38 55 81 46 73 72 104 46 55z m796 -328 c-3 -5 -16 -10 -28 -10 -18
0 -19 2 -7 10 20 13 43 13 35 0z m-160 -90 c-3 -5 -13 -10 -21 -10 -8 0 -14 5
-14 10 0 6 9 10 21 10 11 0 17 -4 14 -10z m-89 -62 c-9 -13 -21 -34 -26 -48
-16 -40 -34 -75 -42 -80 -10 -8 -33 -98 -27 -105 3 -3 47 -2 97 3 54 4 92 4
92 -1 0 -5 -11 -22 -25 -38 -35 -42 -47 -90 -52 -212 -3 -68 -9 -110 -17 -112
-19 -7 -280 -34 -284 -30 -2 2 23 9 55 15 32 7 67 16 78 20 11 4 35 13 53 20
32 12 32 13 32 80 0 91 16 169 41 204 l22 29 -34 -6 c-19 -4 -62 -9 -96 -13
-76 -8 -77 -6 -29 98 31 69 55 98 136 167 42 37 48 38 26 9z m-468 -65 c-13
-16 -35 -48 -47 -73 -31 -60 -66 -101 -111 -126 -45 -25 -169 -68 -176 -61 -3
3 4 23 15 46 23 45 68 78 187 140 44 23 94 55 109 71 36 38 58 40 23 3z m1089
-329 c-3 -3 -12 -4 -19 -1 -8 3 -5 6 6 6 11 1 17 -2 13 -5z m-57 -54 c0 -5
-18 -1 -40 9 -58 26 -61 34 -7 15 26 -9 47 -20 47 -24z m-863 -186 c-3 -3 -12
-4 -19 -1 -8 3 -5 6 6 6 11 1 17 -2 13 -5z m-42 -314 c-9 -36 -28 -85 -41
-110 -26 -47 -26 -46 14 65 21 60 25 86 24 184 -1 146 12 171 16 31 2 -72 -2
-125 -13 -170z m365 232 c0 -36 -1 -38 -45 -48 -25 -6 -45 -9 -45 -7 0 5 82
93 86 93 2 0 4 -17 4 -38z m-15 -282 l0 -43 -52 -12 c-47 -11 -51 -10 -45 5
11 27 76 98 87 96 6 -2 10 -22 10 -46z m-1525 36 c0 -2 -20 -16 -45 -32 -25
-15 -45 -33 -45 -38 0 -6 -10 -31 -22 -56 -12 -25 -22 -49 -22 -54 -1 -5 -6
-11 -12 -13 -8 -3 -15 15 -19 47 -6 45 -4 52 17 70 12 11 28 20 33 20 6 0 30
14 55 30 41 27 60 36 60 26z m1510 -278 c-24 -19 -87 -34 -98 -23 -4 3 2 11
13 17 11 6 30 22 42 34 13 13 31 27 40 33 29 16 31 -38 3 -61z m20 -107 c0
-40 -59 -80 -131 -88 l-54 -6 80 61 c44 33 86 61 93 61 7 1 12 -11 12 -28z"/>
<path d="M1810 2927 c0 -22 -52 -65 -110 -90 -30 -13 -66 -29 -80 -35 -22 -9
-22 -11 -5 -11 30 -1 160 54 201 85 19 15 39 35 45 46 8 16 6 18 -21 18 -18 0
-30 -5 -30 -13z"/>
<path d="M1891 2824 c-19 -8 -32 -17 -28 -20 3 -3 22 4 44 15 44 23 34 27 -16
5z"/>
<path d="M1818 2784 c-38 -20 -36 -28 2 -9 17 9 30 18 30 20 0 7 -1 6 -32 -11z"/>
<path d="M148 83 c6 -2 18 -2 25 0 6 3 1 5 -13 5 -14 0 -19 -2 -12 -5z"/>
<path d="M388 43 c7 -3 16 -2 19 1 4 3 -2 6 -13 5 -11 0 -14 -3 -6 -6z"/>
<path d="M448 33 c6 -2 18 -2 25 0 6 3 1 5 -13 5 -14 0 -19 -2 -12 -5z"/>
</g>
</svg>
