<?xml version="1.0" standalone="no"?>
<!DOCTYPE svg PUBLIC "-//W3C//DTD SVG 20010904//EN"
 "http://www.w3.org/TR/2001/REC-SVG-20010904/DTD/svg10.dtd">
<svg version="1.0" xmlns="http://www.w3.org/2000/svg"
 width="512.000000pt" height="512.000000pt" viewBox="0 0 512.000000 512.000000"
 preserveAspectRatio="xMidYMid meet">

<g transform="translate(0.000000,512.000000) scale(0.100000,-0.100000)"
fill="#d3d3d3" stroke="none">
<path d="M3270 4595 c-213 -48 -394 -204 -477 -409 l-32 -81 -1335 -5 -1335
-5 -32 -30 c-37 -35 -59 -82 -59 -126 0 -44 37 -106 80 -132 l35 -22 1326 -3
1326 -2 13 -44 c35 -125 168 -292 292 -364 195 -115 435 -122 641 -20 141 71
276 224 326 370 l18 53 474 5 c472 5 474 5 511 28 40 25 78 91 78 135 0 40
-23 88 -59 122 l-32 30 -483 3 -484 3 -26 72 c-70 191 -233 346 -431 407 -91
28 -246 35 -335 15z m294 -344 c75 -37 128 -92 164 -170 38 -80 37 -192 0
-273 -35 -75 -98 -141 -167 -175 -49 -25 -67 -28 -151 -28 -89 0 -99 2 -158
34 -70 38 -120 90 -154 160 -19 39 -23 62 -23 146 0 90 3 105 28 153 91 173
288 238 461 153z"/>
<path d="M1622 3219 c-251 -33 -457 -202 -543 -444 l-17 -50 -481 -5 c-465 -5
-480 -6 -507 -26 -53 -39 -69 -71 -69 -134 0 -63 16 -95 69 -134 27 -20 42
-21 507 -26 l481 -5 17 -50 c77 -217 248 -374 471 -431 85 -22 235 -22 320 0
36 10 99 34 140 54 141 69 286 240 331 389 l12 43 1333 2 c1328 3 1333 3 1360
24 53 39 69 71 69 134 0 63 -16 95 -69 134 -27 21 -32 21 -1360 24 l-1333 2
-12 43 c-44 149 -190 320 -331 389 -124 61 -260 85 -388 67z m144 -320 c265
-48 378 -368 199 -566 -134 -150 -356 -157 -498 -17 -138 136 -138 352 0 489
51 50 109 81 174 94 61 12 59 12 125 0z"/>
<path d="M3265 1825 c-220 -48 -424 -234 -486 -442 l-12 -43 -1326 -2 -1326
-3 -38 -24 c-99 -61 -101 -193 -3 -265 27 -21 34 -21 1357 -26 l1330 -5 32
-80 c65 -159 172 -277 321 -350 117 -58 212 -79 331 -72 272 16 504 190 595
445 l23 62 472 0 472 0 33 23 c48 32 72 69 77 120 7 56 -25 118 -77 150 -34
22 -42 22 -509 27 l-474 5 -18 53 c-47 139 -183 296 -316 365 -138 72 -309 95
-458 62z m297 -338 c68 -34 131 -100 166 -175 22 -46 26 -72 27 -137 0 -71 -4
-88 -33 -147 -38 -77 -92 -130 -171 -167 -47 -22 -70 -26 -141 -26 -73 0 -93
4 -142 28 -122 60 -188 159 -196 293 -7 137 48 245 158 312 76 45 103 52 196
49 64 -3 93 -9 136 -30z"/>
</g>
</svg>
